This is my own rip.  The audio is from the DVD, as the AC3 from the HDTV broadcast was fairly poor quality.

General
Unique ID                        : 207158680742337265222475303011127535623 (0x9BD94F86A2FBA30BB6DF28E000462807)
Format                           : Matroska
Format version                   : Version 4 / Version 2
File size                        : 2.11 GiB
Duration                         : 1h 33mn
Overall bit rate mode            : Variable
Overall bit rate                 : 3 227 Kbps
Encoded date                     : UTC 2013-04-06 17:13:03
Writing application              : mkvmerge v6.1.0 ('Old Devil') built on Mar  2 2013 14:32:37
Writing library                  : libebml v1.3.0 + libmatroska v1.4.0

Video
ID                               : 1
Format                           : AVC
Format/Info                      : Advanced Video Codec
Format profile                   : High@L4.1
Format settings, CABAC           : Yes
Format settings, ReFrames        : 7 frames
Codec ID                         : V_MPEG4/ISO/AVC
Duration                         : 1h 33mn
Bit rate mode                    : Variable
Bit rate                         : 2 408 Kbps
Maximum bit rate                 : 9.9 Mbps
Width                            : 1 280 pixels
Height                           : 692 pixels
Display aspect ratio             : 1.850
Frame rate                       : 23.976 fps
Color space                      : YUV
Chroma subsampling               : 4:2:0
Bit depth                        : 8 bits
Scan type                        : Progressive
Bits/(Pixel*Frame)               : 0.113
Stream size                      : 1.58 GiB (75%)
Writing library                  : x264 core 129 r2245 bc13772
Language                         : English
Default                          : Yes
Forced                           : No

Audio
ID                               : 2
Format                           : DTS
Format/Info                      : Digital Theater Systems
Codec ID                         : A_DTS
Duration                         : 1h 33mn
Bit rate mode                    : Constant
Bit rate                         : 755 Kbps
Channel(s)                       : 6 channels
Channel positions                : Front: L C R, Side: L R, LFE
Sampling rate                    : 48.0 KHz
Bit depth                        : 24 bits
Compression mode                 : Lossy
Stream size                      : 505 MiB (23%)
Language                         : English
Default                          : Yes
Forced                           : No

Menu
00:00:00.000                     : Women Everywhere
00:02:25.687                     : Main Titles
00:03:42.222                     : To Simulate a Girl
00:10:33.466                     : Cyber Babe
00:14:20.485                     : On the Town
00:22:28.264                     : One Serious Idiot
00:27:16.760                     : The Morning After
00:30:57.022                     : At the Mall
00:36:41.282                     : Gentle Persuasion
00:42:56.616                     : Party!
00:50:28.817                     : Scientific Breakthrough
01:00:22.202                     : Uninvited Guests
01:09:53.439                     : In the Mood
01:12:38.938                     : Here Comes Chet
01:18:25.534                     : Land Speed Record
01:22:13.117                     : Chet Happens
01:25:09.521                     : Nick of Time
01:29:55.704                     : End Titles
